<svg width="18" height="17" viewBox="0 0 18 17" fill="none" xmlns="http://www.w3.org/2000/svg">
<path d="M14.625 0.375H3.375C2.71218 0.375724 2.07672 0.639348 1.60803 1.10803C1.13935 1.57672 0.875724 2.21218 0.875 2.875V14.125C0.875724 14.7878 1.13935 15.4233 1.60803 15.892C2.07672 16.3607 2.71218 16.6243 3.375 16.625H14.625C15.2878 16.6243 15.9233 16.3607 16.392 15.892C16.8607 15.4233 17.1243 14.7878 17.125 14.125V2.875C17.1243 2.21218 16.8607 1.57672 16.392 1.10803C15.9233 0.639348 15.2878 0.375724 14.625 0.375ZM13.2285 5.77695L7.97852 12.027C7.92093 12.0955 7.84927 12.151 7.76839 12.1894C7.68752 12.2279 7.59932 12.2486 7.50977 12.25H7.49922C7.41162 12.25 7.325 12.2315 7.24499 12.1959C7.16497 12.1602 7.09335 12.1081 7.03477 12.043L4.78477 9.54297C4.72762 9.48236 4.68317 9.41094 4.65403 9.33291C4.62488 9.25488 4.61163 9.17181 4.61504 9.08858C4.61846 9.00536 4.63848 8.92365 4.67392 8.84827C4.70936 8.77289 4.75952 8.70536 4.82143 8.64964C4.88335 8.59392 4.95578 8.55114 5.03447 8.52381C5.11315 8.49648 5.19651 8.48516 5.27963 8.49051C5.36276 8.49585 5.44398 8.51776 5.51851 8.55495C5.59305 8.59213 5.6594 8.64384 5.71367 8.70703L7.48281 10.6727L12.2715 4.97305C12.3789 4.84886 12.5309 4.77193 12.6945 4.75889C12.8582 4.74584 13.0205 4.79774 13.1462 4.90335C13.2719 5.00896 13.351 5.1598 13.3664 5.32327C13.3818 5.48675 13.3323 5.64971 13.2285 5.77695Z" fill="#1463FF"/>
</svg>
